<?xml version="1.0" encoding="UTF-8"?>
<svg xmlns="http://www.w3.org/2000/svg" viewBox="0 0 64 64" width="512" height="512"><g id="Data_Transfer-Analytics-Stata-Analysis-Computer_Engineering" data-name="Data Transfer-Analytics-Stata-Analysis-Computer Engineering"><path d="M56.54,39.25,51.67,36.4a.53.53,0,0,1-.06-.1A3.307,3.307,0,0,0,50,35.17V34.16A10.024,10.024,0,0,0,55.95,26h.55a3.5,3.5,0,0,0,0-7H56v-.18a2.993,2.993,0,0,0-.47-5.77,9.884,9.884,0,0,0-2.46-4.11,9.774,9.774,0,0,0-4.12-2.47,3,3,0,0,0-5.9-.01A10.306,10.306,0,0,0,40,8V5a3.009,3.009,0,0,0-3-3H5A3.009,3.009,0,0,0,2,5V37a3.009,3.009,0,0,0,3,3H34.34A11.037,11.037,0,0,0,30,48.74v5.21a5.017,5.017,0,0,0,4,4.9V61a1,1,0,0,0,1,1H57a1,1,0,0,0,1-1V58.85a5.017,5.017,0,0,0,4-4.9V48.74A11.017,11.017,0,0,0,56.54,39.25ZM50.01,37.5a1.225,1.225,0,0,1,.2,1.11l-.77,2.72L47.4,39.8l2.04-2.72A1.187,1.187,0,0,1,50.01,37.5Zm-8.02,0a1.187,1.187,0,0,1,.57-.42L44.6,39.8l-2.04,1.53-.77-2.72A1.225,1.225,0,0,1,41.99,37.5Zm-1.6-1.2a.53.53,0,0,1-.06.1l-.33.19V32.98a9.39,9.39,0,0,0,2,1.18v1.01A3.307,3.307,0,0,0,40.39,36.3ZM44,35.67V34.8a10.1,10.1,0,0,0,4,0v.87l-2,2.66ZM54,25a8.011,8.011,0,0,1-8,8,8.006,8.006,0,0,1-8-8V19H54Zm2.5-4a1.5,1.5,0,0,1,0,3H56V21ZM49,8.59a8.176,8.176,0,0,1,2.66,1.76A8,8,0,0,1,53.41,13H49ZM45,7a1,1,0,0,1,2,0v6H45Zm10,8a1,1,0,0,1,0,2H37a1,1,0,0,1,0-2ZM43,8.59V13H38.6A8,8,0,0,1,43,8.59ZM4,5A1,1,0,0,1,5,4H37a1,1,0,0,1,1,1V8H4ZM5,38a1,1,0,0,1-1-1V10H38v.01a10.226,10.226,0,0,0-1.53,3.04A2.993,2.993,0,0,0,36,18.82V19h-.5a3.5,3.5,0,0,0,0,7h.55A9.891,9.891,0,0,0,38,30.98V37a1,1,0,0,1-1,1ZM36,21v3h-.5a1.5,1.5,0,0,1,0-3ZM56,60H36V58.84c.04-.01.08-.01.13-.02l9.95-2.11,9.79,2.1a.611.611,0,0,0,.13.03ZM44,53.23a1.218,1.218,0,0,1,.35-.86,1.234,1.234,0,0,1,.88-.37H48v3.08l-3.06-.66A1.2,1.2,0,0,1,44,53.23Zm16,.72a3.009,3.009,0,0,1-3,3,3.2,3.2,0,0,1-.7-.09L50,55.51V52h5a1,1,0,0,0,1-1V47H54v3H38V47H36v4a1,1,0,0,0,1,1h5.24A3.209,3.209,0,0,0,42,53.23a3.166,3.166,0,0,0,.81,2.13l-7.11,1.5a3.054,3.054,0,0,1-.7.09,3.009,3.009,0,0,1-3-3V48.74a9.03,9.03,0,0,1,4.46-7.77L39.84,39c.01.05.01.11.02.16l.78,2.72a2,2,0,0,0,1.28,1.34,2.05,2.05,0,0,0,.64.11,2.012,2.012,0,0,0,1.2-.4L46,41.25l2.24,1.68a2.012,2.012,0,0,0,1.2.4,2.05,2.05,0,0,0,.64-.11,2,2,0,0,0,1.28-1.34l.78-2.72c.01-.05.01-.11.02-.16l3.38,1.97A9.03,9.03,0,0,1,60,48.74Z"/><path d="M44.017,27.25l-1.325,1.5a5,5,0,0,0,6.616,0l-1.325-1.5A3.074,3.074,0,0,1,44.017,27.25Z"/><circle cx="42" cy="23" r="2"/><circle cx="50" cy="23" r="2"/><rect x="6" y="5" width="2" height="2"/><rect x="10" y="5" width="2" height="2"/><rect x="14" y="5" width="2" height="2"/><path d="M12,13.1V12H10v1.1a5,5,0,1,0,2,0ZM11,21a2.993,2.993,0,0,1-1-5.816V18h2V15.184A2.993,2.993,0,0,1,11,21Z"/><path d="M15.707,27.707l-1.414-1.414-.54.54a5.015,5.015,0,1,0,1.414,1.414ZM14,31a3,3,0,1,1-3-3,2.951,2.951,0,0,1,1.285.3l-1.992,1.992,1.414,1.414L13.7,29.715A2.951,2.951,0,0,1,14,31Z"/><path d="M20,23H31V21H21V19.535L23,18.2l2.445,1.63a1,1,0,0,0,1.262-.125l2.42-2.42,2.318,1.545,1.11-1.664-3-2a1,1,0,0,0-1.262.125l-2.42,2.42-2.318-1.545a1,1,0,0,0-1.11,0L21,17.132V13H19v9A1,1,0,0,0,20,23Z"/><path d="M21,32.351l2.883-3.6,2.26,3.767a1,1,0,0,0,.834.485H27a1,1,0,0,0,.832-.445l1.323-1.985,1.138,1.137A1,1,0,0,0,31.6,31.8l4-3-1.2-1.6-3.306,2.48-1.387-1.387a.988.988,0,0,0-.806-.288,1,1,0,0,0-.733.44L27.045,30.13l-2.188-3.645a1,1,0,0,0-.79-.483,1.014,1.014,0,0,0-.848.373L21,29.149V26H19v9a1,1,0,0,0,1,1H36V34H21Z"/></g></svg>
